# xmcd
#
# Track frame offsets: 
#        150
#        14740
#        31083
#        45354
#        59533
#        74003
#        92103
#        106599
#        121023
#        138216
#        155590
#        169797
#        186522
#        204404
#        221668
#        238108
#        254471
#        267998
#        284725
#        300114
#        328791
#
# Disc length: 4646 seconds
#
# Revision: 0
# Processed by: cddbd v1.5.2PL0 Copyright (c) Steve Scherf et al.
# Submitted via: ExactAudioCopy v1.0b3
#
DISCID=34122415
DTITLE=Various Artist - Deutsche DJ Charts Vol. 4 - CD 1
DYEAR=1900
DGENRE=
TTITLE0=Rave Allstars - Wonderful Days 2006 (Radio Mix) 
TTITLE1=DJ Klubbingman Feat. Trixi Delgado - Ride On A White Train (Li
TTITLE1=ke A Hurricane) (Original Club Radio Edit)
TTITLE2=Ron Van Den Beuken - Find The Way (Radio Edit) 
TTITLE3=Sample Rippers - Miracle Maker (Single Edit) 
TTITLE4=DJ Merlyn and DJ C-Bass - No Alternative (Radio Edit) 
TTITLE5=Join Forces Vs. Iguana - Do You Want (Radio Version) 
TTITLE6=Matt Ricks - Home Again (Radio Edit) 
TTITLE7=4 Clubbers - Let Me Be Your Fantasy (Extended Cut) 
TTITLE8=Frankie B. - Life's For Living (Single Edit) 
TTITLE9=2 Vibez - Move Alone (Radio Edit) 
TTITLE10=Raveboy - Check My Beat (...On The Floor) (Original Mix Edit)
TTITLE10=
TTITLE11=Mike Wind and Marc Korn - On My Way (Rocco Vs. Bass-T Cut) 
TTITLE12=Megara Vs. DJ Lee - For A Moment (Club Cut) 
TTITLE13=Tom Mountain - A Little Respect (Ozi Radio Mix) 
TTITLE14=Rumble! - Can You Feel It? (Single Edit) 
TTITLE15=Commander Tom Vs. Oliver Cats - I Can't Sleep (Flips1De Rmx E
TTITLE15=dit) 
TTITLE16=Pimp! - We Are The Best (Radio Mix) 
TTITLE17=Tonic and Serenity - Elements Of Trance (Radio Mix) 
TTITLE18=Mario Lopez - Lonely (Without You) (Original Radio Cut) 
TTITLE19=Age Pee - Hymn! (Radio Version) 
TTITLE20=Bonus Video
EXTD=
EXTT0=
EXTT1=
EXTT2=
EXTT3=
EXTT4=
EXTT5=
EXTT6=
EXTT7=
EXTT8=
EXTT9=
EXTT10=
EXTT11=
EXTT12=
EXTT13=
EXTT14=
EXTT15=
EXTT16=
EXTT17=
EXTT18=
EXTT19=
EXTT20=
PLAYORDER=
